<?xml version="1.0" encoding="UTF-8"?>
<svg xmlns="http://www.w3.org/2000/svg" xmlns:xlink="http://www.w3.org/1999/xlink" width="424.8pt" height="152.927pt" viewBox="0 0 424.8 152.927" version="1.2">
<defs>
<g>
<symbol overflow="visible" id="glyph0-0">
<path style="stroke:none;" d="M 0.390625 0 L 3.578125 0 L 3.578125 -4.25 L 0.390625 -4.25 Z M 0.796875 -0.390625 L 0.796875 -3.84375 L 3.1875 -3.84375 L 3.1875 -0.390625 Z M 0.796875 -0.390625 "/>
</symbol>
<symbol overflow="visible" id="glyph0-1">
<path style="stroke:none;" d="M 2.21875 -5.4375 C 1.078125 -5.4375 0.328125 -4.4375 0.328125 -2.671875 C 0.328125 -0.921875 1.078125 0.09375 2.21875 0.09375 C 3.359375 0.09375 4.109375 -0.921875 4.109375 -2.671875 C 4.109375 -4.4375 3.359375 -5.4375 2.21875 -5.4375 Z M 2.21875 -5.0625 C 2.953125 -5.0625 3.34375 -4.25 3.34375 -2.671875 C 3.34375 -1.09375 2.953125 -0.28125 2.21875 -0.28125 C 1.484375 -0.28125 1.078125 -1.09375 1.078125 -2.671875 C 1.078125 -4.25 1.484375 -5.0625 2.21875 -5.0625 Z M 2.21875 -5.0625 "/>
</symbol>
<symbol overflow="visible" id="glyph0-2">
<path style="stroke:none;" d="M 1.125 -0.625 C 2.890625 -2.03125 3.84375 -2.9375 3.84375 -3.9375 C 3.84375 -4.84375 3.21875 -5.4375 2.1875 -5.4375 C 1.203125 -5.4375 0.5 -4.875 0.5 -4.3125 C 0.5 -4.046875 0.671875 -3.875 0.953125 -3.875 C 1.078125 -3.875 1.1875 -3.90625 1.3125 -4 L 1.3125 -4.84375 C 1.546875 -4.984375 1.78125 -5.03125 2.015625 -5.03125 C 2.671875 -5.03125 3.078125 -4.59375 3.078125 -3.828125 C 3.078125 -2.78125 2.078125 -1.921875 0.328125 -0.5 L 0.328125 0 L 4.03125 0 L 4.03125 -1.3125 L 3.671875 -1.3125 L 3.515625 -0.625 Z M 1.125 -0.625 "/>
</symbol>
<symbol overflow="visible" id="glyph0-3">
<path style="stroke:none;" d="M 1.109375 -0.9375 C 0.828125 -0.9375 0.59375 -0.71875 0.59375 -0.4375 C 0.59375 -0.140625 0.828125 0.078125 1.109375 0.078125 C 1.390625 0.078125 1.609375 -0.15625 1.609375 -0.4375 C 1.609375 -0.71875 1.390625 -0.9375 1.109375 -0.9375 Z M 1.109375 -0.9375 "/>
</symbol>
<symbol overflow="visible" id="glyph0-4">
<path style="stroke:none;" d="M 0.8125 -5.34375 L 0.8125 -2.71875 C 0.984375 -2.75 1.21875 -2.765625 1.5 -2.765625 C 2.609375 -2.765625 3.15625 -2.390625 3.15625 -1.5625 C 3.15625 -0.828125 2.65625 -0.296875 1.90625 -0.296875 C 1.734375 -0.296875 1.546875 -0.328125 1.375 -0.390625 L 1.046875 -1.078125 C 0.96875 -1.09375 0.90625 -1.09375 0.859375 -1.09375 C 0.59375 -1.09375 0.390625 -0.921875 0.390625 -0.671875 C 0.390625 -0.296875 0.953125 0.078125 1.765625 0.078125 C 3.078125 0.078125 3.890625 -0.703125 3.890625 -1.734375 C 3.890625 -2.640625 3.21875 -3.265625 2.15625 -3.265625 C 1.890625 -3.265625 1.609375 -3.21875 1.296875 -3.125 L 1.296875 -4.71875 L 3.65625 -4.71875 L 3.65625 -5.34375 Z M 0.8125 -5.34375 "/>
</symbol>
<symbol overflow="visible" id="glyph0-5">
<path style="stroke:none;" d="M 2.484375 -5.4375 L 0.75 -4.921875 L 0.75 -4.59375 L 2 -4.8125 L 2 -0.53125 L 1.90625 -0.390625 L 0.984375 -0.34375 L 0.984375 0 L 3.65625 0 L 3.65625 -0.328125 L 2.796875 -0.375 L 2.703125 -0.5 L 2.703125 -5.4375 Z M 2.484375 -5.4375 "/>
</symbol>
<symbol overflow="visible" id="glyph0-6">
<path style="stroke:none;" d="M 1.265625 -3.828125 C 0.984375 -3.828125 0.765625 -3.625 0.765625 -3.328125 C 0.765625 -3.046875 0.984375 -2.828125 1.265625 -2.828125 C 1.546875 -2.828125 1.78125 -3.046875 1.78125 -3.328125 C 1.78125 -3.625 1.546875 -3.828125 1.265625 -3.828125 Z M 1.265625 -0.9375 C 0.984375 -0.9375 0.765625 -0.71875 0.765625 -0.4375 C 0.765625 -0.140625 0.984375 0.078125 1.265625 0.078125 C 1.546875 0.078125 1.78125 -0.15625 1.78125 -0.4375 C 1.78125 -0.71875 1.546875 -0.9375 1.265625 -0.9375 Z M 1.265625 -0.9375 "/>
</symbol>
<symbol overflow="visible" id="glyph0-7">
<path style="stroke:none;" d="M 2.53125 -2.8125 C 3.3125 -3.03125 3.71875 -3.484375 3.71875 -4.109375 C 3.71875 -4.90625 3.09375 -5.4375 2.140625 -5.4375 C 1.140625 -5.4375 0.46875 -4.90625 0.46875 -4.375 C 0.46875 -4.125 0.640625 -3.953125 0.890625 -3.953125 C 1.015625 -3.953125 1.125 -3.984375 1.21875 -4.0625 L 1.21875 -4.8125 C 1.453125 -4.96875 1.703125 -5.03125 1.96875 -5.03125 C 2.59375 -5.03125 2.984375 -4.625 2.984375 -4 C 2.984375 -3.359375 2.5625 -2.96875 1.75 -2.96875 C 1.703125 -2.96875 1.640625 -2.984375 1.578125 -2.984375 L 1.578125 -2.515625 C 1.734375 -2.53125 1.875 -2.546875 2.015625 -2.546875 C 2.765625 -2.546875 3.1875 -2.171875 3.1875 -1.546875 C 3.1875 -0.84375 2.65625 -0.28125 1.9375 -0.28125 C 1.703125 -0.28125 1.46875 -0.34375 1.265625 -0.484375 L 1.015625 -1.15625 C 0.921875 -1.1875 0.84375 -1.1875 0.765625 -1.1875 C 0.515625 -1.1875 0.328125 -1.015625 0.328125 -0.78125 C 0.328125 -0.375 0.953125 0.09375 1.90625 0.09375 C 3.125 0.09375 3.921875 -0.640625 3.921875 -1.53125 C 3.921875 -2.25 3.40625 -2.75 2.53125 -2.8125 Z M 2.53125 -2.8125 "/>
</symbol>
<symbol overflow="visible" id="glyph1-0">
<path style="stroke:none;" d=""/>
</symbol>
<symbol overflow="visible" id="glyph1-1">
<path style="stroke:none;" d="M 0.234375 -0.25 C 0.234375 -0.0625 0.421875 0.0625 0.578125 0.0625 C 1.703125 0.0625 1.921875 -1.75 2.15625 -2.984375 L 2.953125 -2.984375 L 2.484375 -0.59375 C 2.46875 -0.5 2.453125 -0.4375 2.453125 -0.375 C 2.453125 -0.03125 2.671875 0.078125 3.015625 0.078125 C 3.625 0.078125 3.71875 -0.046875 3.953125 -0.171875 L 4.015625 -0.4375 C 4.015625 -0.4375 3.71875 -0.328125 3.40625 -0.328125 C 3.1875 -0.328125 3.109375 -0.4375 3.109375 -0.671875 C 3.109375 -0.75 3.125 -0.84375 3.140625 -0.953125 L 3.53125 -2.984375 L 4.421875 -2.984375 L 4.515625 -3.53125 L 1.984375 -3.53125 C 0.921875 -3.53125 0.59375 -3.21875 0.40625 -2.34375 L 0.671875 -2.34375 C 0.78125 -2.84375 1.140625 -2.984375 1.75 -2.984375 C 1.515625 -1.734375 1.25 -0.6875 0.984375 -0.421875 C 0.828125 -0.5625 0.59375 -0.734375 0.59375 -0.734375 C 0.421875 -0.65625 0.234375 -0.484375 0.234375 -0.25 Z M 0.234375 -0.25 "/>
</symbol>
<symbol overflow="visible" id="glyph1-2">
<path style="stroke:none;" d="M 1.65625 -5.390625 L 0.5 -5.1875 L 0.5 -4.96875 L 1.171875 -4.9375 L 0.1875 0 L 0.796875 0 L 1.03125 -1.40625 L 1.4375 -1.78125 L 2.0625 -0.53125 C 2.25 -0.140625 2.46875 0.03125 2.75 0.03125 C 2.890625 0.03125 3.1875 -0.015625 3.609375 -0.15625 L 3.609375 -0.359375 C 3.46875 -0.34375 3.34375 -0.3125 3.234375 -0.3125 C 2.71875 -0.3125 2.4375 -0.9375 1.875 -2.203125 C 2.203125 -2.484375 2.5 -2.765625 2.828125 -2.984375 L 3.078125 -2.703125 C 3.359375 -2.8125 3.484375 -2.96875 3.484375 -3.15625 C 3.484375 -3.375 3.3125 -3.53125 3.078125 -3.53125 C 2.890625 -3.53125 2.6875 -3.40625 2.421875 -3.140625 L 1.0625 -1.75 L 1.859375 -5.390625 Z M 1.65625 -5.390625 "/>
</symbol>
<symbol overflow="visible" id="glyph1-3">
<path style="stroke:none;" d="M 3.75 -4.78125 C 3.34375 -4.9375 2.9375 -5 2.515625 -5 C 1.421875 -5 0.703125 -4.328125 0.703125 -3.4375 C 0.703125 -2.84375 1.1875 -2.5625 1.953125 -2.171875 C 2.421875 -1.921875 2.75 -1.796875 2.75 -1.328125 C 2.75 -0.6875 2.265625 -0.265625 1.5 -0.265625 C 1.234375 -0.265625 0.96875 -0.34375 0.6875 -0.46875 L 0.609375 -0.578125 L 0.6875 -1.421875 L 0.3125 -1.421875 L 0.0625 -0.25 C 0.46875 -0.015625 0.9375 0.09375 1.421875 0.09375 C 2.59375 0.09375 3.40625 -0.59375 3.40625 -1.484375 C 3.40625 -2.109375 3.015625 -2.390625 2.296875 -2.71875 C 1.6875 -3.015625 1.328125 -3.15625 1.328125 -3.6875 C 1.328125 -4.234375 1.8125 -4.671875 2.484375 -4.671875 C 2.703125 -4.671875 2.921875 -4.625 3.125 -4.53125 L 3.21875 -4.390625 L 3.1875 -3.671875 L 3.515625 -3.671875 Z M 3.75 -4.78125 "/>
</symbol>
<symbol overflow="visible" id="glyph1-4">
<path style="stroke:none;" d="M 1.65625 -5.453125 C 1.359375 -5.453125 1.0625 -5.28125 1.0625 -4.9375 C 1.0625 -4.84375 1.09375 -4.734375 1.1875 -4.640625 L 1.953125 -4.921875 C 2.0625 -4.71875 2.09375 -4.390625 2.125 -3.875 L 2.125 -3.703125 L -0.078125 0 L 0.609375 0 L 2.21875 -2.78125 L 2.34375 -0.703125 C 2.359375 -0.265625 2.609375 0.046875 2.921875 0.046875 C 3.15625 0.046875 3.4375 -0.0625 3.65625 -0.1875 L 3.703125 -0.46875 C 3.5 -0.375 3.40625 -0.34375 3.21875 -0.34375 C 2.734375 -0.34375 2.75 -0.671875 2.71875 -1.109375 L 2.484375 -4.171875 C 2.453125 -4.609375 2.390625 -5.03125 2.375 -5.046875 C 2.265625 -5.28125 2.015625 -5.453125 1.65625 -5.453125 Z M 1.65625 -5.453125 "/>
</symbol>
<symbol overflow="visible" id="glyph2-0">
<path style="stroke:none;" d=""/>
</symbol>
<symbol overflow="visible" id="glyph2-1">
<path style="stroke:none;" d="M 1.859375 -6.078125 L 0.5625 -5.828125 L 0.5625 -5.609375 L 1.3125 -5.5625 L 0.203125 0 L 0.890625 0 L 1.15625 -1.578125 L 1.625 -2.015625 L 2.328125 -0.59375 C 2.546875 -0.171875 2.765625 0.046875 3.109375 0.046875 C 3.265625 0.046875 3.59375 -0.03125 4.0625 -0.1875 L 4.0625 -0.40625 C 3.90625 -0.375 3.765625 -0.359375 3.640625 -0.359375 C 3.0625 -0.359375 2.734375 -1.0625 2.109375 -2.46875 C 2.46875 -2.8125 2.828125 -3.109375 3.171875 -3.359375 L 3.46875 -3.046875 C 3.78125 -3.171875 3.921875 -3.34375 3.921875 -3.5625 C 3.921875 -3.796875 3.734375 -3.96875 3.453125 -3.96875 C 3.265625 -3.96875 3.015625 -3.84375 2.734375 -3.546875 L 1.203125 -1.96875 L 2.09375 -6.078125 Z M 1.859375 -6.078125 "/>
</symbol>
<symbol overflow="visible" id="glyph2-2">
<path style="stroke:none;" d="M 1.875 -6.140625 C 1.53125 -6.140625 1.203125 -5.9375 1.203125 -5.5625 C 1.203125 -5.4375 1.234375 -5.328125 1.328125 -5.234375 L 2.1875 -5.546875 C 2.328125 -5.3125 2.34375 -4.9375 2.390625 -4.359375 L 2.390625 -4.171875 L -0.078125 0 L 0.6875 0 L 2.484375 -3.125 L 2.625 -0.796875 C 2.671875 -0.296875 2.9375 0.0625 3.296875 0.0625 C 3.546875 0.0625 3.875 -0.078125 4.109375 -0.21875 L 4.171875 -0.515625 C 3.9375 -0.421875 3.84375 -0.390625 3.625 -0.390625 C 3.078125 -0.390625 3.09375 -0.75 3.046875 -1.25 L 2.796875 -4.6875 C 2.765625 -5.1875 2.6875 -5.671875 2.6875 -5.6875 C 2.546875 -5.9375 2.28125 -6.140625 1.875 -6.140625 Z M 1.875 -6.140625 "/>
</symbol>
<symbol overflow="visible" id="glyph3-0">
<path style="stroke:none;" d=""/>
</symbol>
<symbol overflow="visible" id="glyph3-1">
<path style="stroke:none;" d="M -5.53125 -0.71875 L -5.21875 -0.71875 L -5.1875 -1.25 L -5.0625 -1.34375 L -0.484375 -0.46875 L -0.359375 -0.328125 L -0.3125 0.203125 L 0 0.203125 L 0 -3.796875 L -1.34375 -4.0625 L -1.34375 -3.671875 L -0.515625 -3.40625 L -0.375 -3.25 L -0.375 -1.140625 L -2.6875 -1.59375 L -2.6875 -2.859375 L -2.5625 -2.953125 L -1.96875 -2.921875 L -1.96875 -3.265625 L -3.78125 -3.609375 L -3.78125 -3.25 L -3.1875 -3.0625 L -3.0625 -2.921875 L -3.0625 -1.671875 L -5.15625 -2.078125 L -5.15625 -3.84375 L -5.03125 -3.9375 L -4.328125 -3.9375 L -4.328125 -4.328125 L -5.53125 -4.5625 Z M -5.53125 -0.71875 "/>
</symbol>
<symbol overflow="visible" id="glyph3-2">
<path style="stroke:none;" d="M -5.53125 -1.875 L -5.21875 -1.875 L -5.1875 -2.40625 L -5.0625 -2.5 L -2.078125 -1.921875 C -0.890625 -1.6875 -0.296875 -1.5 -0.296875 -0.71875 C -0.296875 -0.65625 -0.3125 -0.546875 -0.328125 -0.4375 L -0.4375 -0.34375 L -1.484375 -0.34375 L -1.484375 0.078125 L -0.09375 0.34375 C 0.03125 0.0625 0.09375 -0.265625 0.09375 -0.671875 C 0.09375 -1.921875 -0.5625 -2.375 -2.109375 -2.671875 L -5.0625 -3.21875 L -5.1875 -3.34375 L -5.21875 -3.890625 L -5.53125 -3.890625 Z M -5.53125 -1.875 "/>
</symbol>
<symbol overflow="visible" id="glyph4-0">
<path style="stroke:none;" d=""/>
</symbol>
<symbol overflow="visible" id="glyph4-1">
<path style="stroke:none;" d="M 1.734375 -0.5625 L 1.734375 -1.015625 L -6.34375 -3.5625 L -6.34375 -3.109375 Z M 1.734375 -0.5625 "/>
</symbol>
<symbol overflow="visible" id="glyph4-2">
<path style="stroke:none;" d="M 1.734375 -1.140625 L -6.34375 -1.140625 L -6.34375 -0.640625 L 1.734375 -0.640625 Z M 1.734375 -1.140625 "/>
</symbol>
<symbol overflow="visible" id="glyph5-0">
<path style="stroke:none;" d=""/>
</symbol>
<symbol overflow="visible" id="glyph5-1">
<path style="stroke:none;" d="M 4.40625 -2.625 L 4.40625 -3.078125 L 0.3125 -3.078125 L 0.3125 -2.625 Z M 4.40625 -1.015625 L 4.40625 -1.453125 L 0.3125 -1.453125 L 0.3125 -1.015625 Z M 4.40625 -1.015625 "/>
</symbol>
<symbol overflow="visible" id="glyph6-0">
<path style="stroke:none;" d=""/>
</symbol>
<symbol overflow="visible" id="glyph6-1">
<path style="stroke:none;" d="M 3.546875 -1.40625 L 3.546875 -1.765625 L 0.375 -1.765625 L 0.375 -1.40625 Z M 3.546875 -1.40625 "/>
</symbol>
<symbol overflow="visible" id="glyph7-0">
<path style="stroke:none;" d=""/>
</symbol>
<symbol overflow="visible" id="glyph7-1">
<path style="stroke:none;" d="M 1.015625 1.53125 L 1.015625 -5.640625 L 0.578125 -5.640625 L 0.578125 1.53125 Z M 1.015625 1.53125 "/>
</symbol>
<symbol overflow="visible" id="glyph7-2">
<path style="stroke:none;" d="M 4.203125 -3.71875 L 2.1875 -5.640625 L 0.1875 -3.71875 L 0.421875 -3.484375 L 1.15625 -4.09375 L 1.15625 1.53125 L 1.609375 1.53125 L 1.609375 -4.484375 L 2.1875 -4.953125 L 2.765625 -4.46875 L 2.765625 1.53125 L 3.21875 1.53125 L 3.21875 -4.09375 L 3.953125 -3.484375 Z M 4.203125 -3.71875 "/>
</symbol>
<symbol overflow="visible" id="glyph7-3">
<path style="stroke:none;" d="M 2.5 -2.046875 L 0.78125 -5.640625 L 0.390625 -5.640625 L 1.9375 -2.046875 L 0.390625 1.53125 L 0.78125 1.53125 Z M 2.5 -2.046875 "/>
</symbol>
<symbol overflow="visible" id="glyph7-4">
<path style="stroke:none;" d="M 4.578125 -1.828125 L 4.578125 -2.265625 L 0.5 -2.265625 L 0.5 -1.828125 Z M 4.578125 -1.828125 "/>
</symbol>
<symbol overflow="visible" id="glyph7-5">
<path style="stroke:none;" d="M 7.671875 -2.0625 L 6.109375 -3.6875 L 5.859375 -3.40625 L 6.796875 -2.265625 L 1.359375 -2.265625 L 2.296875 -3.421875 L 2.0625 -3.6875 L 0.5 -2.046875 L 2.0625 -0.421875 L 2.296875 -0.671875 L 1.359375 -1.828125 L 6.796875 -1.828125 L 5.859375 -0.671875 L 6.109375 -0.421875 Z M 7.671875 -2.0625 "/>
</symbol>
<symbol overflow="visible" id="glyph7-6">
<path style="stroke:none;" d="M 7.671875 -2.0625 L 6.109375 -3.6875 L 5.859375 -3.421875 L 6.8125 -2.265625 L 0.5 -2.265625 L 0.5 -1.828125 L 6.8125 -1.828125 L 5.859375 -0.671875 L 6.109375 -0.421875 Z M 7.671875 -2.0625 "/>
</symbol>
<symbol overflow="visible" id="glyph7-7">
<path style="stroke:none;" d="M 4.578125 -2.109375 L 4.578125 -2.5625 L 2.75 -2.5625 L 2.75 -4.09375 L 2.3125 -4.09375 L 2.3125 -2.5625 L 0.5 -2.5625 L 0.5 -2.109375 L 2.3125 -2.109375 L 2.3125 -0.65625 L 2.75 -0.65625 L 2.75 -2.109375 Z M 4.578125 0 L 4.578125 -0.421875 L 0.5 -0.421875 L 0.5 0 Z M 4.578125 0 "/>
</symbol>
<symbol overflow="visible" id="glyph7-8">
<path style="stroke:none;" d="M 6.390625 -2.15625 C 6.390625 -2.875 6 -3.484375 5.203125 -3.484375 C 4.546875 -3.484375 3.90625 -2.859375 3.5 -2.375 C 3.171875 -2.9375 2.53125 -3.5 1.859375 -3.5 C 0.984375 -3.5 0.421875 -2.65625 0.421875 -1.84375 C 0.421875 -1.125 0.828125 -0.5 1.609375 -0.5 C 2.234375 -0.5 2.953125 -1.140625 3.296875 -1.640625 C 3.671875 -1.078125 4.25 -0.5 4.953125 -0.5 C 5.828125 -0.5 6.390625 -1.359375 6.390625 -2.15625 Z M 5.921875 -1.78125 C 5.921875 -1.265625 5.671875 -0.828125 5.09375 -0.828125 C 4.5 -0.828125 3.953125 -1.71875 3.640625 -2.15625 C 3.875 -2.515625 4.515625 -3.09375 4.96875 -3.09375 C 5.609375 -3.09375 5.921875 -2.328125 5.921875 -1.78125 Z M 3.15625 -1.859375 C 2.9375 -1.5 2.28125 -0.921875 1.84375 -0.921875 C 1.203125 -0.921875 0.890625 -1.703125 0.890625 -2.234375 C 0.890625 -2.765625 1.15625 -3.21875 1.734375 -3.21875 C 2.265625 -3.21875 2.9375 -2.296875 3.15625 -1.859375 Z M 3.15625 -1.859375 "/>
</symbol>
<symbol overflow="visible" id="glyph8-0">
<path style="stroke:none;" d=""/>
</symbol>
<symbol overflow="visible" id="glyph8-1">
<path style="stroke:none;" d="M 4.953125 -2.953125 L 4.953125 -3.46875 L 0.359375 -3.46875 L 0.359375 -2.953125 Z M 4.953125 -1.140625 L 4.953125 -1.640625 L 0.359375 -1.640625 L 0.359375 -1.140625 Z M 4.953125 -1.140625 "/>
</symbol>
<symbol overflow="visible" id="glyph9-0">
<path style="stroke:none;" d="M 0.359375 0 L 3.265625 0 L 3.265625 -3.875 L 0.359375 -3.875 Z M 0.71875 -0.359375 L 0.71875 -3.515625 L 2.90625 -3.515625 L 2.90625 -0.359375 Z M 0.71875 -0.359375 "/>
</symbol>
<symbol overflow="visible" id="glyph9-1">
<path style="stroke:none;" d="M 2.265625 -4.96875 L 0.6875 -4.484375 L 0.6875 -4.1875 L 1.828125 -4.390625 L 1.828125 -0.484375 L 1.734375 -0.359375 L 0.90625 -0.3125 L 0.90625 0 L 3.328125 0 L 3.328125 -0.3125 L 2.546875 -0.34375 L 2.46875 -0.453125 L 2.46875 -4.96875 Z M 2.265625 -4.96875 "/>
</symbol>
<symbol overflow="visible" id="glyph9-2">
<path style="stroke:none;" d="M 1.03125 -0.578125 C 2.625 -1.859375 3.515625 -2.671875 3.515625 -3.59375 C 3.515625 -4.40625 2.9375 -4.96875 2 -4.96875 C 1.09375 -4.96875 0.453125 -4.453125 0.453125 -3.9375 C 0.453125 -3.6875 0.609375 -3.53125 0.859375 -3.53125 C 0.984375 -3.53125 1.09375 -3.5625 1.1875 -3.640625 L 1.1875 -4.421875 C 1.40625 -4.546875 1.625 -4.59375 1.84375 -4.59375 C 2.4375 -4.59375 2.796875 -4.1875 2.796875 -3.5 C 2.796875 -2.546875 1.890625 -1.75 0.3125 -0.453125 L 0.3125 0 L 3.671875 0 L 3.671875 -1.1875 L 3.34375 -1.1875 L 3.21875 -0.578125 Z M 1.03125 -0.578125 "/>
</symbol>
<symbol overflow="visible" id="glyph10-0">
<path style="stroke:none;" d="M 0.453125 0 L 4.03125 0 L 4.03125 -4.78125 L 0.453125 -4.78125 Z M 0.890625 -0.453125 L 0.890625 -4.328125 L 3.59375 -4.328125 L 3.59375 -0.453125 Z M 0.890625 -0.453125 "/>
</symbol>
<symbol overflow="visible" id="glyph10-1">
<path style="stroke:none;" d="M 3.8125 -0.375 L 3.8125 -0.84375 C 3.4375 -0.59375 3.0625 -0.46875 2.671875 -0.46875 C 1.734375 -0.46875 1.140625 -1.125 1.140625 -2.21875 C 1.140625 -3.359375 1.6875 -4.046875 2.46875 -4.046875 C 2.625 -4.046875 2.765625 -4 2.890625 -3.921875 L 2.890625 -3.1875 C 3.03125 -3.09375 3.171875 -3.046875 3.296875 -3.046875 C 3.609375 -3.046875 3.796875 -3.234375 3.796875 -3.53125 C 3.796875 -4.046875 3.3125 -4.40625 2.453125 -4.40625 C 1.203125 -4.40625 0.328125 -3.5 0.328125 -2.15625 C 0.328125 -0.828125 1.125 0.0625 2.34375 0.0625 C 2.828125 0.0625 3.3125 -0.09375 3.8125 -0.375 Z M 3.8125 -0.375 "/>
</symbol>
<symbol overflow="visible" id="glyph10-2">
<path style="stroke:none;" d="M 2.40625 -4.40625 C 1.203125 -4.40625 0.328125 -3.5 0.328125 -2.15625 C 0.328125 -0.828125 1.203125 0.078125 2.40625 0.078125 C 3.609375 0.078125 4.5 -0.828125 4.5 -2.15625 C 4.5 -3.484375 3.625 -4.40625 2.40625 -4.40625 Z M 2.40625 -4.015625 C 3.140625 -4.015625 3.65625 -3.3125 3.65625 -2.15625 C 3.65625 -1 3.140625 -0.3125 2.40625 -0.3125 C 1.6875 -0.3125 1.171875 -1 1.171875 -2.15625 C 1.171875 -3.328125 1.6875 -4.015625 2.40625 -4.015625 Z M 2.40625 -4.015625 "/>
</symbol>
<symbol overflow="visible" id="glyph10-3">
<path style="stroke:none;" d="M 0.796875 -3.78125 L 0.796875 -0.875 C 0.796875 -0.234375 0.984375 0.03125 1.71875 0.03125 C 2.078125 0.03125 2.46875 -0.03125 2.890625 -0.171875 L 2.890625 -0.5 C 2.6875 -0.453125 2.484375 -0.4375 2.28125 -0.4375 C 1.65625 -0.4375 1.53125 -0.71875 1.53125 -1.40625 L 1.53125 -3.78125 L 2.890625 -3.78125 L 2.890625 -4.203125 L 1.53125 -4.203125 L 1.53125 -5.140625 L 1.203125 -5.140625 L 0.8125 -4.3125 L 0.21875 -4.046875 L 0.21875 -3.78125 Z M 0.796875 -3.78125 "/>
</symbol>
<symbol overflow="visible" id="glyph10-4">
<path style="stroke:none;" d="M 1.265625 -0.703125 C 3.25 -2.28125 4.328125 -3.296875 4.328125 -4.4375 C 4.328125 -5.4375 3.625 -6.125 2.46875 -6.125 C 1.359375 -6.125 0.5625 -5.484375 0.5625 -4.859375 C 0.5625 -4.5625 0.75 -4.359375 1.0625 -4.359375 C 1.203125 -4.359375 1.34375 -4.40625 1.46875 -4.5 L 1.46875 -5.453125 C 1.734375 -5.609375 2 -5.671875 2.265625 -5.671875 C 3.015625 -5.671875 3.46875 -5.171875 3.46875 -4.3125 C 3.46875 -3.140625 2.34375 -2.15625 0.375 -0.5625 L 0.375 0 L 4.53125 0 L 4.53125 -1.46875 L 4.125 -1.46875 L 3.96875 -0.703125 Z M 1.265625 -0.703125 "/>
</symbol>
<symbol overflow="visible" id="glyph11-0">
<path style="stroke:none;" d=""/>
</symbol>
<symbol overflow="visible" id="glyph11-1">
<path style="stroke:none;" d="M 2.640625 -6.4375 C 1.34375 -5.59375 0.4375 -4.140625 0.4375 -2.3125 C 0.4375 -0.640625 1.375 1.046875 2.625 1.8125 L 2.71875 1.671875 C 1.546875 0.734375 1.203125 -0.34375 1.203125 -2.328125 C 1.203125 -4.328125 1.5625 -5.359375 2.71875 -6.28125 Z M 2.640625 -6.4375 "/>
</symbol>
<symbol overflow="visible" id="glyph11-2">
<path style="stroke:none;" d="M 0.5625 1.734375 L 1.015625 1.734375 L 3.5625 -6.34375 L 3.109375 -6.34375 Z M 0.5625 1.734375 "/>
</symbol>
<symbol overflow="visible" id="glyph11-3">
<path style="stroke:none;" d="M 0.34375 -6.4375 L 0.265625 -6.28125 C 1.421875 -5.359375 1.78125 -4.328125 1.78125 -2.328125 C 1.78125 -0.34375 1.4375 0.734375 0.265625 1.671875 L 0.375 1.8125 C 1.609375 1.046875 2.5625 -0.640625 2.5625 -2.3125 C 2.5625 -4.140625 1.640625 -5.59375 0.34375 -6.4375 Z M 0.34375 -6.4375 "/>
</symbol>
</g>
<clipPath id="clip1">
  <path d="M 227.210938 14 L 397.859375 14 L 397.859375 113 L 227.210938 113 Z M 227.210938 14 "/>
</clipPath>
</defs>
<g id="surface1">
<path style="fill:none;stroke-width:0.6;stroke-linecap:butt;stroke-linejoin:round;stroke:rgb(54.116821%,54.116821%,54.116821%);stroke-opacity:1;stroke-miterlimit:10;" d="M 0.000240608 -0.000576015 L 0.000240608 -3.002008 " transform="matrix(0.999523,0,0,-0.999523,36.050541,119.515049)"/>
<g style="fill:rgb(10.195923%,10.195923%,10.195923%);fill-opacity:1;">
  <use xlink:href="#glyph0-1" x="33.835238" y="131.477239"/>
</g>
<path style="fill:none;stroke-width:0.6;stroke-linecap:butt;stroke-linejoin:round;stroke:rgb(54.116821%,54.116821%,54.116821%);stroke-opacity:1;stroke-miterlimit:10;" d="M -0.000310238 -0.000576015 L -0.000310238 -3.002008 " transform="matrix(0.999523,0,0,-0.999523,118.742498,119.515049)"/>
<g style="fill:rgb(10.195923%,10.195923%,10.195923%);fill-opacity:1;">
  <use xlink:href="#glyph1-1" x="116.282882" y="129.573148"/>
</g>
<path style="fill:none;stroke-width:0.6;stroke-linecap:butt;stroke-linejoin:round;stroke:rgb(54.116821%,54.116821%,54.116821%);stroke-opacity:1;stroke-miterlimit:10;" d="M -0.00193109 -0.000576015 L -0.00193109 -3.002008 " transform="matrix(0.999523,0,0,-0.999523,201.435524,119.515049)"/>
<g style="fill:rgb(10.195923%,10.195923%,10.195923%);fill-opacity:1;">
  <use xlink:href="#glyph0-2" x="196.760466" y="131.477239"/>
</g>
<g style="fill:rgb(10.195923%,10.195923%,10.195923%);fill-opacity:1;">
  <use xlink:href="#glyph1-1" x="201.190351" y="131.477239"/>
</g>
<g style="fill:rgb(10.195923%,10.195923%,10.195923%);fill-opacity:1;">
  <use xlink:href="#glyph2-1" x="116.666698" y="143.765373"/>
</g>
<path style="fill:none;stroke-width:0.6;stroke-linecap:butt;stroke-linejoin:round;stroke:rgb(54.116821%,54.116821%,54.116821%);stroke-opacity:1;stroke-miterlimit:10;" d="M -0.00036867 0.00111337 L -3.001801 0.00111337 " transform="matrix(0.999523,0,0,-0.999523,33.418337,114.563613)"/>
<g style="fill:rgb(10.195923%,10.195923%,10.195923%);fill-opacity:1;">
  <use xlink:href="#glyph0-1" x="15.806844" y="117.534894"/>
  <use xlink:href="#glyph0-3" x="20.236105" y="117.534894"/>
  <use xlink:href="#glyph0-1" x="22.450736" y="117.534894"/>
</g>
<path style="fill:none;stroke-width:0.6;stroke-linecap:butt;stroke-linejoin:round;stroke:rgb(54.116821%,54.116821%,54.116821%);stroke-opacity:1;stroke-miterlimit:10;" d="M -0.00036867 -0.00155594 L -3.001801 -0.00155594 " transform="matrix(0.999523,0,0,-0.999523,33.418337,89.803132)"/>
<g style="fill:rgb(10.195923%,10.195923%,10.195923%);fill-opacity:1;">
  <use xlink:href="#glyph0-1" x="15.806844" y="92.775713"/>
  <use xlink:href="#glyph0-3" x="20.236105" y="92.775713"/>
  <use xlink:href="#glyph0-4" x="22.450736" y="92.775713"/>
</g>
<path style="fill:none;stroke-width:0.6;stroke-linecap:butt;stroke-linejoin:round;stroke:rgb(54.116821%,54.116821%,54.116821%);stroke-opacity:1;stroke-miterlimit:10;" d="M -0.00036867 0.000792863 L -3.001801 0.000792863 " transform="matrix(0.999523,0,0,-0.999523,33.418337,65.043761)"/>
<g style="fill:rgb(10.195923%,10.195923%,10.195923%);fill-opacity:1;">
  <use xlink:href="#glyph0-5" x="15.806844" y="68.016532"/>
  <use xlink:href="#glyph0-3" x="20.236105" y="68.016532"/>
  <use xlink:href="#glyph0-1" x="22.450736" y="68.016532"/>
</g>
<path style="fill:none;stroke-width:0.6;stroke-linecap:butt;stroke-linejoin:round;stroke:rgb(54.116821%,54.116821%,54.116821%);stroke-opacity:1;stroke-miterlimit:10;" d="M -0.00036867 -0.000766447 L -3.001801 -0.000766447 " transform="matrix(0.999523,0,0,-0.999523,33.418337,40.28439)"/>
<g style="fill:rgb(10.195923%,10.195923%,10.195923%);fill-opacity:1;">
  <use xlink:href="#glyph0-5" x="15.806844" y="43.257351"/>
  <use xlink:href="#glyph0-3" x="20.236105" y="43.257351"/>
  <use xlink:href="#glyph0-4" x="22.450736" y="43.257351"/>
</g>
<path style="fill:none;stroke-width:0.6;stroke-linecap:butt;stroke-linejoin:round;stroke:rgb(54.116821%,54.116821%,54.116821%);stroke-opacity:1;stroke-miterlimit:10;" d="M -0.00036867 0.00157236 L -3.001801 0.00157236 " transform="matrix(0.999523,0,0,-0.999523,33.418337,15.525009)"/>
<g style="fill:rgb(10.195923%,10.195923%,10.195923%);fill-opacity:1;">
  <use xlink:href="#glyph0-2" x="15.806844" y="18.49717"/>
  <use xlink:href="#glyph0-3" x="20.236105" y="18.49717"/>
  <use xlink:href="#glyph0-1" x="22.450736" y="18.49717"/>
</g>
<g style="fill:rgb(10.195923%,10.195923%,10.195923%);fill-opacity:1;">
  <use xlink:href="#glyph3-1" x="10.047593" y="70.432379"/>
</g>
<g style="fill:rgb(10.195923%,10.195923%,10.195923%);fill-opacity:1;">
  <use xlink:href="#glyph4-1" x="10.047593" y="65.700638"/>
</g>
<g style="fill:rgb(10.195923%,10.195923%,10.195923%);fill-opacity:1;">
  <use xlink:href="#glyph4-2" x="10.047593" y="61.219577"/>
</g>
<g style="fill:rgb(10.195923%,10.195923%,10.195923%);fill-opacity:1;">
  <use xlink:href="#glyph3-2" x="10.047593" y="58.530061"/>
</g>
<g style="fill:rgb(10.195923%,10.195923%,10.195923%);fill-opacity:1;">
  <use xlink:href="#glyph4-2" x="10.047593" y="54.022212"/>
</g>
<path style="fill:none;stroke-width:1.1;stroke-linecap:square;stroke-linejoin:round;stroke:rgb(18.03894%,22.744751%,52.940369%);stroke-opacity:1;stroke-miterlimit:10;" d="M 36.066601 38.309813 L 37.723641 38.407516 L 39.38459 38.700625 L 41.041631 39.189139 L 42.702579 39.873059 L 44.35962 40.748477 L 46.020569 41.807576 L 47.677609 43.046448 L 49.338558 44.469002 L 51.409859 46.485589 L 53.485068 48.756204 L 55.556368 51.269122 L 57.631577 54.012618 L 60.117138 57.576819 L 62.606607 61.410679 L 65.510336 66.178579 L 68.828326 71.950864 L 72.974835 79.50525 L 87.489573 106.314916 L 90.807563 111.942602 L 93.707384 116.558085 L 96.196853 120.239529 L 98.686322 123.635681 L 100.757623 126.218944 L 102.832831 128.563813 L 104.904132 130.658563 L 106.979341 132.48756 L 108.64029 133.753789 L 110.29733 134.836337 L 111.954371 135.731296 L 113.61532 136.438664 L 115.27236 136.950627 L 116.933309 137.271093 L 118.59035 137.392244 L 120.251298 137.31799 L 121.908339 137.04833 L 123.56538 136.583265 L 125.226328 135.926701 L 126.883369 135.074732 L 128.544318 134.039082 L 130.201358 132.81975 L 131.862307 131.424553 L 133.933608 129.435323 L 136.008817 127.184249 L 138.080117 124.69478 L 140.155326 121.974732 L 142.640887 118.43398 L 145.130356 114.623568 L 148.034086 109.875209 L 151.352075 104.122464 L 155.498584 96.583711 L 170.427582 69.027595 L 173.745572 63.41945 L 176.649301 58.827415 L 179.134862 55.165512 L 181.624331 51.800625 L 183.69954 49.24081 L 185.770841 46.91939 L 187.84605 44.851997 L 189.91735 43.046448 L 191.578299 41.807576 L 193.23534 40.748477 L 194.896288 39.873059 L 196.553329 39.189139 L 198.214278 38.700625 L 199.871318 38.407516 L 201.528359 38.309813 " transform="matrix(0.999523,0,0,-0.999523,0.00138889,152.854035)"/>
<path style=" stroke:none;fill-rule:nonzero;fill:rgb(79.998779%,25.489807%,14.508057%);fill-opacity:1;" d="M 36.050781 116.164062 C 36.472656 116.164062 36.882812 115.996094 37.179688 115.695312 C 37.480469 115.394531 37.648438 114.988281 37.648438 114.5625 C 37.648438 114.140625 37.480469 113.730469 37.179688 113.433594 C 36.882812 113.132812 36.472656 112.964844 36.050781 112.964844 C 35.625 112.964844 35.21875 113.132812 34.917969 113.433594 C 34.621094 113.730469 34.453125 114.140625 34.453125 114.5625 C 34.453125 114.988281 34.621094 115.394531 34.917969 115.695312 C 35.21875 115.996094 35.625 116.164062 36.050781 116.164062 Z M 36.050781 116.164062 "/>
<path style=" stroke:none;fill-rule:nonzero;fill:rgb(79.998779%,25.489807%,14.508057%);fill-opacity:1;" d="M 49.832031 109.527344 C 50.257812 109.527344 50.664062 109.359375 50.964844 109.058594 C 51.265625 108.761719 51.433594 108.351562 51.433594 107.929688 C 51.433594 107.503906 51.265625 107.097656 50.964844 106.796875 C 50.664062 106.496094 50.257812 106.328125 49.832031 106.328125 C 49.410156 106.328125 49 106.496094 48.703125 106.796875 C 48.402344 107.097656 48.234375 107.503906 48.234375 107.929688 C 48.234375 108.351562 48.402344 108.761719 48.703125 109.058594 C 49 109.359375 49.410156 109.527344 49.832031 109.527344 Z M 49.832031 109.527344 "/>
<path style=" stroke:none;fill-rule:nonzero;fill:rgb(79.998779%,25.489807%,14.508057%);fill-opacity:1;" d="M 63.613281 91.402344 C 64.039062 91.402344 64.445312 91.234375 64.746094 90.933594 C 65.046875 90.632812 65.214844 90.226562 65.214844 89.804688 C 65.214844 89.378906 65.046875 88.972656 64.746094 88.671875 C 64.445312 88.371094 64.039062 88.203125 63.613281 88.203125 C 63.191406 88.203125 62.785156 88.371094 62.484375 88.671875 C 62.183594 88.972656 62.015625 89.378906 62.015625 89.804688 C 62.015625 90.226562 62.183594 90.632812 62.484375 90.933594 C 62.785156 91.234375 63.191406 91.402344 63.613281 91.402344 Z M 63.613281 91.402344 "/>
<path style=" stroke:none;fill-rule:nonzero;fill:rgb(79.998779%,25.489807%,14.508057%);fill-opacity:1;" d="M 77.398438 66.644531 C 77.820312 66.644531 78.226562 66.472656 78.527344 66.175781 C 78.828125 65.875 78.996094 65.46875 78.996094 65.042969 C 78.996094 64.621094 78.828125 64.210938 78.527344 63.914062 C 78.226562 63.613281 77.820312 63.445312 77.398438 63.445312 C 76.972656 63.445312 76.566406 63.613281 76.265625 63.914062 C 75.964844 64.210938 75.796875 64.621094 75.796875 65.042969 C 75.796875 65.46875 75.964844 65.875 76.265625 66.175781 C 76.566406 66.472656 76.972656 66.644531 77.398438 66.644531 Z M 77.398438 66.644531 "/>
<path style=" stroke:none;fill-rule:nonzero;fill:rgb(79.998779%,25.489807%,14.508057%);fill-opacity:1;" d="M 91.179688 41.882812 C 91.601562 41.882812 92.011719 41.714844 92.308594 41.414062 C 92.609375 41.117188 92.777344 40.707031 92.777344 40.285156 C 92.777344 39.859375 92.609375 39.453125 92.308594 39.152344 C 92.011719 38.855469 91.601562 38.683594 91.179688 38.683594 C 90.753906 38.683594 90.347656 38.855469 90.046875 39.152344 C 89.746094 39.453125 89.578125 39.859375 89.578125 40.285156 C 89.578125 40.707031 89.746094 41.117188 90.046875 41.414062 C 90.347656 41.714844 90.753906 41.882812 91.179688 41.882812 Z M 91.179688 41.882812 "/>
<path style=" stroke:none;fill-rule:nonzero;fill:rgb(79.998779%,25.489807%,14.508057%);fill-opacity:1;" d="M 104.960938 23.757812 C 105.386719 23.757812 105.792969 23.589844 106.09375 23.289062 C 106.390625 22.992188 106.558594 22.582031 106.558594 22.160156 C 106.558594 21.734375 106.390625 21.328125 106.09375 21.027344 C 105.792969 20.730469 105.386719 20.5625 104.960938 20.5625 C 104.539062 20.5625 104.128906 20.730469 103.828125 21.027344 C 103.53125 21.328125 103.363281 21.734375 103.363281 22.160156 C 103.363281 22.582031 103.53125 22.992188 103.828125 23.289062 C 104.128906 23.589844 104.539062 23.757812 104.960938 23.757812 Z M 104.960938 23.757812 "/>
<path style=" stroke:none;fill-rule:nonzero;fill:rgb(79.998779%,25.489807%,14.508057%);fill-opacity:1;" d="M 118.742188 17.125 C 119.167969 17.125 119.574219 16.957031 119.875 16.65625 C 120.171875 16.355469 120.339844 15.949219 120.339844 15.523438 C 120.339844 15.101562 120.171875 14.695312 119.875 14.394531 C 119.574219 14.09375 119.167969 13.925781 118.742188 13.925781 C 118.320312 13.925781 117.910156 14.09375 117.613281 14.394531 C 117.3125 14.695312 117.144531 15.101562 117.144531 15.523438 C 117.144531 15.949219 117.3125 16.355469 117.613281 16.65625 C 117.910156 16.957031 118.320312 17.125 118.742188 17.125 Z M 118.742188 17.125 "/>
<path style=" stroke:none;fill-rule:nonzero;fill:rgb(79.998779%,25.489807%,14.508057%);fill-opacity:1;" d="M 132.523438 23.757812 C 132.949219 23.757812 133.355469 23.589844 133.65625 23.289062 C 133.957031 22.992188 134.125 22.582031 134.125 22.160156 C 134.125 21.734375 133.957031 21.328125 133.65625 21.027344 C 133.355469 20.730469 132.949219 20.5625 132.523438 20.5625 C 132.101562 20.5625 131.695312 20.730469 131.394531 21.027344 C 131.09375 21.328125 130.925781 21.734375 130.925781 22.160156 C 130.925781 22.582031 131.09375 22.992188 131.394531 23.289062 C 131.695312 23.589844 132.101562 23.757812 132.523438 23.757812 Z M 132.523438 23.757812 "/>
<path style=" stroke:none;fill-rule:nonzero;fill:rgb(79.998779%,25.489807%,14.508057%);fill-opacity:1;" d="M 146.308594 41.882812 C 146.730469 41.882812 147.140625 41.714844 147.4375 41.414062 C 147.738281 41.117188 147.90625 40.707031 147.90625 40.285156 C 147.90625 39.859375 147.738281 39.453125 147.4375 39.152344 C 147.140625 38.855469 146.730469 38.683594 146.308594 38.683594 C 145.882812 38.683594 145.476562 38.855469 145.175781 39.152344 C 144.875 39.453125 144.707031 39.859375 144.707031 40.285156 C 144.707031 40.707031 144.875 41.117188 145.175781 41.414062 C 145.476562 41.714844 145.882812 41.882812 146.308594 41.882812 Z M 146.308594 41.882812 "/>
<path style=" stroke:none;fill-rule:nonzero;fill:rgb(79.998779%,25.489807%,14.508057%);fill-opacity:1;" d="M 160.089844 66.644531 C 160.511719 66.644531 160.921875 66.472656 161.21875 66.175781 C 161.519531 65.875 161.6875 65.46875 161.6875 65.042969 C 161.6875 64.621094 161.519531 64.210938 161.21875 63.914062 C 160.921875 63.613281 160.511719 63.445312 160.089844 63.445312 C 159.664062 63.445312 159.257812 63.613281 158.957031 63.914062 C 158.65625 64.210938 158.488281 64.621094 158.488281 65.042969 C 158.488281 65.46875 158.65625 65.875 158.957031 66.175781 C 159.257812 66.472656 159.664062 66.644531 160.089844 66.644531 Z M 160.089844 66.644531 "/>
<path style=" stroke:none;fill-rule:nonzero;fill:rgb(79.998779%,25.489807%,14.508057%);fill-opacity:1;" d="M 173.871094 91.402344 C 174.296875 91.402344 174.703125 91.234375 175.003906 90.933594 C 175.300781 90.632812 175.46875 90.226562 175.46875 89.804688 C 175.46875 89.378906 175.300781 88.972656 175.003906 88.671875 C 174.703125 88.371094 174.296875 88.203125 173.871094 88.203125 C 173.449219 88.203125 173.039062 88.371094 172.742188 88.671875 C 172.441406 88.972656 172.273438 89.378906 172.273438 89.804688 C 172.273438 90.226562 172.441406 90.632812 172.742188 90.933594 C 173.039062 91.234375 173.449219 91.402344 173.871094 91.402344 Z M 173.871094 91.402344 "/>
<path style=" stroke:none;fill-rule:nonzero;fill:rgb(79.998779%,25.489807%,14.508057%);fill-opacity:1;" d="M 187.652344 109.527344 C 188.078125 109.527344 188.484375 109.359375 188.785156 109.058594 C 189.082031 108.761719 189.25 108.351562 189.25 107.929688 C 189.25 107.503906 189.082031 107.097656 188.785156 106.796875 C 188.484375 106.496094 188.078125 106.328125 187.652344 106.328125 C 187.230469 106.328125 186.820312 106.496094 186.523438 106.796875 C 186.222656 107.097656 186.054688 107.503906 186.054688 107.929688 C 186.054688 108.351562 186.222656 108.761719 186.523438 109.058594 C 186.820312 109.359375 187.230469 109.527344 187.652344 109.527344 Z M 187.652344 109.527344 "/>
<path style="fill:none;stroke-width:0.6;stroke-linecap:square;stroke-linejoin:miter;stroke:rgb(54.116821%,54.116821%,54.116821%);stroke-opacity:1;stroke-miterlimit:10;" d="M 33.432531 33.354324 L 33.432531 149.780968 " transform="matrix(0.999523,0,0,-0.999523,0.00138889,152.854035)"/>
<path style="fill:none;stroke-width:0.6;stroke-linecap:square;stroke-linejoin:miter;stroke:rgb(54.116821%,54.116821%,54.116821%);stroke-opacity:1;stroke-miterlimit:10;" d="M 33.432531 33.354324 L 204.162428 33.354324 " transform="matrix(0.999523,0,0,-0.999523,0.00138889,152.854035)"/>
<path style="fill:none;stroke-width:0.6;stroke-linecap:round;stroke-linejoin:round;stroke:rgb(54.116821%,54.116821%,54.116821%);stroke-opacity:1;stroke-miterlimit:10;" d="M 59.855295 109.445316 C 52.308725 86.696181 44.766064 63.947046 37.223403 41.19791 " transform="matrix(0.999523,0,0,-0.999523,0.00138889,152.854035)"/>
<g style="fill:rgb(10.195923%,10.195923%,10.195923%);fill-opacity:1;">
  <use xlink:href="#glyph1-2" x="40.15722" y="37.810951"/>
</g>
<g style="fill:rgb(10.195923%,10.195923%,10.195923%);fill-opacity:1;">
  <use xlink:href="#glyph5-1" x="46.217328" y="37.810951"/>
</g>
<g style="fill:rgb(10.195923%,10.195923%,10.195923%);fill-opacity:1;">
  <use xlink:href="#glyph0-1" x="53.14702" y="37.810951"/>
</g>
<g style="fill:rgb(10.195923%,10.195923%,10.195923%);fill-opacity:1;">
  <use xlink:href="#glyph0-6" x="57.575906" y="37.810951"/>
</g>
<g style="fill:rgb(10.195923%,10.195923%,10.195923%);fill-opacity:1;">
  <use xlink:href="#glyph1-3" x="62.620498" y="37.810951"/>
</g>
<g style="fill:rgb(10.195923%,10.195923%,10.195923%);fill-opacity:1;">
  <use xlink:href="#glyph6-1" x="66.958427" y="34.520522"/>
</g>
<g style="fill:rgb(10.195923%,10.195923%,10.195923%);fill-opacity:1;">
  <use xlink:href="#glyph7-1" x="72.187931" y="37.810951"/>
</g>
<g style="fill:rgb(10.195923%,10.195923%,10.195923%);fill-opacity:1;">
  <use xlink:href="#glyph7-2" x="76.553461" y="37.810951"/>
</g>
<g style="fill:rgb(10.195923%,10.195923%,10.195923%);fill-opacity:1;">
  <use xlink:href="#glyph7-3" x="81.33324" y="37.810951"/>
</g>
<path style="fill:none;stroke-width:0.6;stroke-linecap:butt;stroke-linejoin:round;stroke:rgb(54.116821%,54.116821%,54.116821%);stroke-opacity:1;stroke-miterlimit:10;" d="M 0.00027753 -0.000576015 L 0.00027753 -3.002008 " transform="matrix(0.999523,0,0,-0.999523,227.21066,119.515049)"/>
<g style="fill:rgb(10.195923%,10.195923%,10.195923%);fill-opacity:1;">
  <use xlink:href="#glyph7-4" x="222.460198" y="131.429262"/>
</g>
<g style="fill:rgb(10.195923%,10.195923%,10.195923%);fill-opacity:1;">
  <use xlink:href="#glyph0-7" x="227.844627" y="131.429262"/>
</g>
<path style="fill:none;stroke-width:0.6;stroke-linecap:butt;stroke-linejoin:round;stroke:rgb(54.116821%,54.116821%,54.116821%);stroke-opacity:1;stroke-miterlimit:10;" d="M 0.00030034 -0.000576015 L 0.00030034 -3.002008 " transform="matrix(0.999523,0,0,-0.999523,255.652044,119.515049)"/>
<g style="fill:rgb(10.195923%,10.195923%,10.195923%);fill-opacity:1;">
  <use xlink:href="#glyph7-4" x="250.900622" y="131.429262"/>
</g>
<g style="fill:rgb(10.195923%,10.195923%,10.195923%);fill-opacity:1;">
  <use xlink:href="#glyph0-2" x="256.286051" y="131.429262"/>
</g>
<path style="fill:none;stroke-width:0.6;stroke-linecap:butt;stroke-linejoin:round;stroke:rgb(54.116821%,54.116821%,54.116821%);stroke-opacity:1;stroke-miterlimit:10;" d="M 0.000323151 -0.000576015 L 0.000323151 -3.002008 " transform="matrix(0.999523,0,0,-0.999523,284.093427,119.515049)"/>
<g style="fill:rgb(10.195923%,10.195923%,10.195923%);fill-opacity:1;">
  <use xlink:href="#glyph7-4" x="279.342045" y="131.429262"/>
</g>
<g style="fill:rgb(10.195923%,10.195923%,10.195923%);fill-opacity:1;">
  <use xlink:href="#glyph0-5" x="284.727474" y="131.429262"/>
</g>
<path style="fill:none;stroke-width:0.6;stroke-linecap:butt;stroke-linejoin:round;stroke:rgb(54.116821%,54.116821%,54.116821%);stroke-opacity:1;stroke-miterlimit:10;" d="M 0.000355961 -0.000576015 L 0.000355961 -3.002008 " transform="matrix(0.999523,0,0,-0.999523,312.5348,119.515049)"/>
<g style="fill:rgb(10.195923%,10.195923%,10.195923%);fill-opacity:1;">
  <use xlink:href="#glyph0-1" x="310.316259" y="131.429262"/>
</g>
<path style="fill:none;stroke-width:0.6;stroke-linecap:butt;stroke-linejoin:round;stroke:rgb(54.116821%,54.116821%,54.116821%);stroke-opacity:1;stroke-miterlimit:10;" d="M -0.000731229 -0.000576015 L -0.000731229 -3.002008 " transform="matrix(0.999523,0,0,-0.999523,340.977293,119.515049)"/>
<g style="fill:rgb(10.195923%,10.195923%,10.195923%);fill-opacity:1;">
  <use xlink:href="#glyph0-5" x="338.758682" y="131.429262"/>
</g>
<path style="fill:none;stroke-width:0.6;stroke-linecap:butt;stroke-linejoin:round;stroke:rgb(54.116821%,54.116821%,54.116821%);stroke-opacity:1;stroke-miterlimit:10;" d="M -0.000708418 -0.000576015 L -0.000708418 -3.002008 " transform="matrix(0.999523,0,0,-0.999523,369.418677,119.515049)"/>
<g style="fill:rgb(10.195923%,10.195923%,10.195923%);fill-opacity:1;">
  <use xlink:href="#glyph0-2" x="367.199106" y="131.429262"/>
</g>
<path style="fill:none;stroke-width:0.6;stroke-linecap:butt;stroke-linejoin:round;stroke:rgb(54.116821%,54.116821%,54.116821%);stroke-opacity:1;stroke-miterlimit:10;" d="M -0.000675608 -0.000576015 L -0.000675608 -3.002008 " transform="matrix(0.999523,0,0,-0.999523,397.86005,119.515049)"/>
<g style="fill:rgb(10.195923%,10.195923%,10.195923%);fill-opacity:1;">
  <use xlink:href="#glyph0-7" x="395.64053" y="131.429262"/>
</g>
<g style="fill:rgb(10.195923%,10.195923%,10.195923%);fill-opacity:1;">
  <use xlink:href="#glyph2-2" x="284.901391" y="146.2242"/>
</g>
<g style="fill:rgb(10.195923%,10.195923%,10.195923%);fill-opacity:1;">
  <use xlink:href="#glyph8-1" x="292.113948" y="146.2242"/>
</g>
<g style="fill:rgb(10.195923%,10.195923%,10.195923%);fill-opacity:1;">
  <use xlink:href="#glyph9-1" x="301.103657" y="142.693885"/>
</g>
<path style="fill:none;stroke-width:0.502;stroke-linecap:butt;stroke-linejoin:miter;stroke:rgb(10.195923%,10.195923%,10.195923%);stroke-opacity:1;stroke-miterlimit:10;" d="M 0.00181248 -0.000576386 L 4.042803 -0.000576386 " transform="matrix(0.999523,0,0,-0.999523,301.103657,143.921299)"/>
<g style="fill:rgb(10.195923%,10.195923%,10.195923%);fill-opacity:1;">
  <use xlink:href="#glyph9-2" x="301.103657" y="149.660559"/>
</g>
<g style="fill:rgb(10.195923%,10.195923%,10.195923%);fill-opacity:1;">
  <use xlink:href="#glyph10-1" x="307.834444" y="146.2242"/>
  <use xlink:href="#glyph10-2" x="311.831551" y="146.2242"/>
  <use xlink:href="#glyph10-3" x="316.662134" y="146.2242"/>
</g>
<g style="fill:rgb(10.195923%,10.195923%,10.195923%);fill-opacity:1;">
  <use xlink:href="#glyph11-1" x="320.103587" y="146.2242"/>
</g>
<g style="fill:rgb(10.195923%,10.195923%,10.195923%);fill-opacity:1;">
  <use xlink:href="#glyph2-1" x="323.624907" y="146.2242"/>
</g>
<g style="fill:rgb(10.195923%,10.195923%,10.195923%);fill-opacity:1;">
  <use xlink:href="#glyph11-2" x="327.95384" y="146.2242"/>
</g>
<g style="fill:rgb(10.195923%,10.195923%,10.195923%);fill-opacity:1;">
  <use xlink:href="#glyph10-4" x="332.076872" y="146.2242"/>
</g>
<g style="fill:rgb(10.195923%,10.195923%,10.195923%);fill-opacity:1;">
  <use xlink:href="#glyph11-3" x="337.059494" y="146.2242"/>
</g>
<path style="fill:none;stroke-width:0.6;stroke-linecap:butt;stroke-linejoin:round;stroke:rgb(54.116821%,54.116821%,54.116821%);stroke-opacity:1;stroke-miterlimit:10;" d="M 0.00027753 0.00111337 L -3.001155 0.00111337 " transform="matrix(0.999523,0,0,-0.999523,227.21066,114.563613)"/>
<g style="fill:rgb(10.195923%,10.195923%,10.195923%);fill-opacity:1;">
  <use xlink:href="#glyph0-1" x="209.596338" y="117.534894"/>
  <use xlink:href="#glyph0-3" x="214.0256" y="117.534894"/>
  <use xlink:href="#glyph0-1" x="216.24023" y="117.534894"/>
</g>
<path style="fill:none;stroke-width:0.6;stroke-linecap:butt;stroke-linejoin:round;stroke:rgb(54.116821%,54.116821%,54.116821%);stroke-opacity:1;stroke-miterlimit:10;" d="M 0.00027753 -0.00155594 L -3.001155 -0.00155594 " transform="matrix(0.999523,0,0,-0.999523,227.21066,89.803132)"/>
<g style="fill:rgb(10.195923%,10.195923%,10.195923%);fill-opacity:1;">
  <use xlink:href="#glyph0-1" x="209.596338" y="92.775713"/>
  <use xlink:href="#glyph0-3" x="214.0256" y="92.775713"/>
  <use xlink:href="#glyph0-4" x="216.24023" y="92.775713"/>
</g>
<path style="fill:none;stroke-width:0.6;stroke-linecap:butt;stroke-linejoin:round;stroke:rgb(54.116821%,54.116821%,54.116821%);stroke-opacity:1;stroke-miterlimit:10;" d="M 0.00027753 0.000792863 L -3.001155 0.000792863 " transform="matrix(0.999523,0,0,-0.999523,227.21066,65.043761)"/>
<g style="fill:rgb(10.195923%,10.195923%,10.195923%);fill-opacity:1;">
  <use xlink:href="#glyph0-5" x="209.596338" y="68.016532"/>
  <use xlink:href="#glyph0-3" x="214.0256" y="68.016532"/>
  <use xlink:href="#glyph0-1" x="216.24023" y="68.016532"/>
</g>
<path style="fill:none;stroke-width:0.6;stroke-linecap:butt;stroke-linejoin:round;stroke:rgb(54.116821%,54.116821%,54.116821%);stroke-opacity:1;stroke-miterlimit:10;" d="M 0.00027753 -0.000766447 L -3.001155 -0.000766447 " transform="matrix(0.999523,0,0,-0.999523,227.21066,40.28439)"/>
<g style="fill:rgb(10.195923%,10.195923%,10.195923%);fill-opacity:1;">
  <use xlink:href="#glyph0-5" x="209.596338" y="43.257351"/>
  <use xlink:href="#glyph0-3" x="214.0256" y="43.257351"/>
  <use xlink:href="#glyph0-4" x="216.24023" y="43.257351"/>
</g>
<path style="fill:none;stroke-width:0.6;stroke-linecap:butt;stroke-linejoin:round;stroke:rgb(54.116821%,54.116821%,54.116821%);stroke-opacity:1;stroke-miterlimit:10;" d="M 0.00027753 0.00157236 L -3.001155 0.00157236 " transform="matrix(0.999523,0,0,-0.999523,227.21066,15.525009)"/>
<g style="fill:rgb(10.195923%,10.195923%,10.195923%);fill-opacity:1;">
  <use xlink:href="#glyph0-2" x="209.596338" y="18.49717"/>
  <use xlink:href="#glyph0-3" x="214.0256" y="18.49717"/>
  <use xlink:href="#glyph0-1" x="216.24023" y="18.49717"/>
</g>
<g clip-path="url(#clip1)" clip-rule="nonzero">
<path style="fill:none;stroke-width:1.1;stroke-linecap:square;stroke-linejoin:round;stroke:rgb(18.03894%,22.744751%,52.940369%);stroke-opacity:1;stroke-miterlimit:10;" d="M 227.318008 40.986872 L 235.58367 41.573089 L 242.422871 42.21402 L 248.12481 42.89794 L 252.970872 43.632666 L 257.24635 44.433829 L 260.951242 45.277982 L 264.370843 46.215929 L 267.505151 47.247672 L 270.358074 48.3693 L 272.921797 49.557367 L 275.204136 50.788423 L 277.197275 52.031204 L 279.194321 53.457666 L 281.18746 55.102982 L 282.899214 56.717033 L 284.60706 58.553847 L 286.318814 60.656413 L 287.741368 62.637827 L 289.16783 64.861544 L 290.594292 67.362738 L 292.016846 70.172672 L 293.443308 73.338245 L 294.869769 76.898537 L 296.292323 80.892631 L 297.718785 85.355698 L 299.145247 90.307279 L 300.853093 96.89636 L 302.850139 105.365245 L 307.696202 126.547226 L 308.833463 130.64293 L 309.68934 133.194929 L 310.545217 135.207608 L 311.115802 136.204177 L 311.686387 136.911546 L 312.256971 137.306266 L 312.823648 137.384428 L 313.394233 137.146033 L 313.964818 136.594989 L 314.535402 135.74302 L 315.105987 134.60185 L 315.961864 132.401582 L 316.813833 129.685442 L 317.955003 125.429505 L 319.381464 119.418825 L 324.798111 95.751283 L 326.505957 89.279445 L 327.932419 84.421658 L 329.354973 80.056294 L 330.781435 76.152088 L 332.207897 72.673866 L 333.634359 69.586455 L 335.056912 66.83905 L 336.483374 64.396479 L 337.905928 62.223567 L 339.617682 59.925596 L 341.329436 57.916825 L 343.037282 56.158173 L 344.749037 54.606651 L 346.742175 53.027773 L 348.739222 51.659933 L 351.017653 50.303817 L 353.299992 49.139199 L 355.863715 48.013662 L 358.716638 46.950655 L 361.850946 45.96581 L 365.270547 45.066944 L 368.975439 44.257964 L 373.250917 43.491973 L 378.096979 42.784605 L 383.79501 42.124133 L 390.352827 41.526192 L 398.047904 40.986872 " transform="matrix(0.999523,0,0,-0.999523,0.00138889,152.854035)"/>
</g>
<path style=" stroke:none;fill-rule:nonzero;fill:rgb(79.998779%,25.489807%,14.508057%);fill-opacity:1;" d="M 365.609375 109.527344 C 366.03125 109.527344 366.4375 109.359375 366.738281 109.058594 C 367.039062 108.761719 367.207031 108.351562 367.207031 107.929688 C 367.207031 107.503906 367.039062 107.097656 366.738281 106.796875 C 366.4375 106.496094 366.03125 106.328125 365.609375 106.328125 C 365.183594 106.328125 364.777344 106.496094 364.476562 106.796875 C 364.175781 107.097656 364.007812 107.503906 364.007812 107.929688 C 364.007812 108.351562 364.175781 108.761719 364.476562 109.058594 C 364.777344 109.359375 365.183594 109.527344 365.609375 109.527344 Z M 365.609375 109.527344 "/>
<path style=" stroke:none;fill-rule:nonzero;fill:rgb(79.998779%,25.489807%,14.508057%);fill-opacity:1;" d="M 337.167969 91.402344 C 337.589844 91.402344 338 91.234375 338.296875 90.933594 C 338.597656 90.632812 338.765625 90.226562 338.765625 89.804688 C 338.765625 89.378906 338.597656 88.972656 338.296875 88.671875 C 338 88.371094 337.589844 88.203125 337.167969 88.203125 C 336.742188 88.203125 336.335938 88.371094 336.035156 88.671875 C 335.734375 88.972656 335.566406 89.378906 335.566406 89.804688 C 335.566406 90.226562 335.734375 90.632812 336.035156 90.933594 C 336.335938 91.234375 336.742188 91.402344 337.167969 91.402344 Z M 337.167969 91.402344 "/>
<path style=" stroke:none;fill-rule:nonzero;fill:rgb(79.998779%,25.489807%,14.508057%);fill-opacity:1;" d="M 326.753906 66.644531 C 327.179688 66.644531 327.585938 66.472656 327.886719 66.175781 C 328.1875 65.875 328.355469 65.46875 328.355469 65.042969 C 328.355469 64.621094 328.1875 64.210938 327.886719 63.914062 C 327.585938 63.613281 327.179688 63.445312 326.753906 63.445312 C 326.332031 63.445312 325.925781 63.613281 325.625 63.914062 C 325.324219 64.210938 325.15625 64.621094 325.15625 65.042969 C 325.15625 65.46875 325.324219 65.875 325.625 66.175781 C 325.925781 66.472656 326.332031 66.644531 326.753906 66.644531 Z M 326.753906 66.644531 "/>
<path style=" stroke:none;fill-rule:nonzero;fill:rgb(79.998779%,25.489807%,14.508057%);fill-opacity:1;" d="M 320.746094 41.882812 C 321.167969 41.882812 321.578125 41.714844 321.875 41.414062 C 322.175781 41.117188 322.34375 40.707031 322.34375 40.285156 C 322.34375 39.859375 322.175781 39.453125 321.875 39.152344 C 321.578125 38.855469 321.167969 38.683594 320.746094 38.683594 C 320.320312 38.683594 319.914062 38.855469 319.613281 39.152344 C 319.316406 39.453125 319.148438 39.859375 319.148438 40.285156 C 319.148438 40.707031 319.316406 41.117188 319.613281 41.414062 C 319.914062 41.714844 320.320312 41.882812 320.746094 41.882812 Z M 320.746094 41.882812 "/>
<path style=" stroke:none;fill-rule:nonzero;fill:rgb(79.998779%,25.489807%,14.508057%);fill-opacity:1;" d="M 316.34375 23.757812 C 316.769531 23.757812 317.175781 23.589844 317.476562 23.289062 C 317.777344 22.992188 317.945312 22.582031 317.945312 22.160156 C 317.945312 21.734375 317.777344 21.328125 317.476562 21.027344 C 317.175781 20.730469 316.769531 20.5625 316.34375 20.5625 C 315.921875 20.5625 315.515625 20.730469 315.214844 21.027344 C 314.914062 21.328125 314.746094 21.734375 314.746094 22.160156 C 314.746094 22.582031 314.914062 22.992188 315.214844 23.289062 C 315.515625 23.589844 315.921875 23.757812 316.34375 23.757812 Z M 316.34375 23.757812 "/>
<path style=" stroke:none;fill-rule:nonzero;fill:rgb(79.998779%,25.489807%,14.508057%);fill-opacity:1;" d="M 312.535156 17.125 C 312.957031 17.125 313.367188 16.957031 313.664062 16.65625 C 313.964844 16.355469 314.132812 15.949219 314.132812 15.523438 C 314.132812 15.101562 313.964844 14.695312 313.664062 14.394531 C 313.367188 14.09375 312.957031 13.925781 312.535156 13.925781 C 312.109375 13.925781 311.703125 14.09375 311.402344 14.394531 C 311.105469 14.695312 310.9375 15.101562 310.9375 15.523438 C 310.9375 15.949219 311.105469 16.355469 311.402344 16.65625 C 311.703125 16.957031 312.109375 17.125 312.535156 17.125 Z M 312.535156 17.125 "/>
<path style=" stroke:none;fill-rule:nonzero;fill:rgb(79.998779%,25.489807%,14.508057%);fill-opacity:1;" d="M 308.722656 23.757812 C 309.148438 23.757812 309.554688 23.589844 309.855469 23.289062 C 310.15625 22.992188 310.324219 22.582031 310.324219 22.160156 C 310.324219 21.734375 310.15625 21.328125 309.855469 21.027344 C 309.554688 20.730469 309.148438 20.5625 308.722656 20.5625 C 308.300781 20.5625 307.894531 20.730469 307.59375 21.027344 C 307.292969 21.328125 307.125 21.734375 307.125 22.160156 C 307.125 22.582031 307.292969 22.992188 307.59375 23.289062 C 307.894531 23.589844 308.300781 23.757812 308.722656 23.757812 Z M 308.722656 23.757812 "/>
<path style=" stroke:none;fill-rule:nonzero;fill:rgb(79.998779%,25.489807%,14.508057%);fill-opacity:1;" d="M 304.324219 41.882812 C 304.75 41.882812 305.15625 41.714844 305.457031 41.414062 C 305.757812 41.117188 305.925781 40.707031 305.925781 40.285156 C 305.925781 39.859375 305.757812 39.453125 305.457031 39.152344 C 305.15625 38.855469 304.75 38.683594 304.324219 38.683594 C 303.902344 38.683594 303.492188 38.855469 303.195312 39.152344 C 302.894531 39.453125 302.726562 39.859375 302.726562 40.285156 C 302.726562 40.707031 302.894531 41.117188 303.195312 41.414062 C 303.492188 41.714844 303.902344 41.882812 304.324219 41.882812 Z M 304.324219 41.882812 "/>
<path style=" stroke:none;fill-rule:nonzero;fill:rgb(79.998779%,25.489807%,14.508057%);fill-opacity:1;" d="M 298.3125 66.644531 C 298.738281 66.644531 299.144531 66.472656 299.445312 66.175781 C 299.746094 65.875 299.914062 65.46875 299.914062 65.042969 C 299.914062 64.621094 299.746094 64.210938 299.445312 63.914062 C 299.144531 63.613281 298.738281 63.445312 298.3125 63.445312 C 297.890625 63.445312 297.484375 63.613281 297.183594 63.914062 C 296.882812 64.210938 296.714844 64.621094 296.714844 65.042969 C 296.714844 65.46875 296.882812 65.875 297.183594 66.175781 C 297.484375 66.472656 297.890625 66.644531 298.3125 66.644531 Z M 298.3125 66.644531 "/>
<path style=" stroke:none;fill-rule:nonzero;fill:rgb(79.998779%,25.489807%,14.508057%);fill-opacity:1;" d="M 287.902344 91.402344 C 288.328125 91.402344 288.734375 91.234375 289.035156 90.933594 C 289.335938 90.632812 289.503906 90.226562 289.503906 89.804688 C 289.503906 89.378906 289.335938 88.972656 289.035156 88.671875 C 288.734375 88.371094 288.328125 88.203125 287.902344 88.203125 C 287.480469 88.203125 287.074219 88.371094 286.773438 88.671875 C 286.472656 88.972656 286.304688 89.378906 286.304688 89.804688 C 286.304688 90.226562 286.472656 90.632812 286.773438 90.933594 C 287.074219 91.234375 287.480469 91.402344 287.902344 91.402344 Z M 287.902344 91.402344 "/>
<path style=" stroke:none;fill-rule:nonzero;fill:rgb(79.998779%,25.489807%,14.508057%);fill-opacity:1;" d="M 259.460938 109.527344 C 259.886719 109.527344 260.292969 109.359375 260.59375 109.058594 C 260.894531 108.761719 261.0625 108.351562 261.0625 107.929688 C 261.0625 107.503906 260.894531 107.097656 260.59375 106.796875 C 260.292969 106.496094 259.886719 106.328125 259.460938 106.328125 C 259.039062 106.328125 258.632812 106.496094 258.332031 106.796875 C 258.03125 107.097656 257.863281 107.503906 257.863281 107.929688 C 257.863281 108.351562 258.03125 108.761719 258.332031 109.058594 C 258.632812 109.359375 259.039062 109.527344 259.460938 109.527344 Z M 259.460938 109.527344 "/>
<path style="fill:none;stroke-width:0.6;stroke-linecap:square;stroke-linejoin:miter;stroke:rgb(54.116821%,54.116821%,54.116821%);stroke-opacity:1;stroke-miterlimit:10;" d="M 227.318008 33.354324 L 227.318008 149.780968 " transform="matrix(0.999523,0,0,-0.999523,0.00138889,152.854035)"/>
<path style="fill:none;stroke-width:0.6;stroke-linecap:square;stroke-linejoin:miter;stroke:rgb(54.116821%,54.116821%,54.116821%);stroke-opacity:1;stroke-miterlimit:10;" d="M 227.318008 33.354324 L 398.047904 33.354324 " transform="matrix(0.999523,0,0,-0.999523,0.00138889,152.854035)"/>
<g style="fill:rgb(10.195923%,10.195923%,10.195923%);fill-opacity:1;">
  <use xlink:href="#glyph1-2" x="351.086798" y="55.141678"/>
</g>
<g style="fill:rgb(10.195923%,10.195923%,10.195923%);fill-opacity:1;">
  <use xlink:href="#glyph5-1" x="357.146905" y="55.141678"/>
</g>
<g style="fill:rgb(10.195923%,10.195923%,10.195923%);fill-opacity:1;">
  <use xlink:href="#glyph1-1" x="364.075597" y="55.141678"/>
</g>
<g style="fill:rgb(10.195923%,10.195923%,10.195923%);fill-opacity:1;">
  <use xlink:href="#glyph7-5" x="373.419137" y="55.141678"/>
</g>
<g style="fill:rgb(10.195923%,10.195923%,10.195923%);fill-opacity:1;">
  <use xlink:href="#glyph1-4" x="386.298989" y="55.141678"/>
</g>
<g style="fill:rgb(10.195923%,10.195923%,10.195923%);fill-opacity:1;">
  <use xlink:href="#glyph5-1" x="392.709929" y="55.141678"/>
</g>
<g style="fill:rgb(10.195923%,10.195923%,10.195923%);fill-opacity:1;">
  <use xlink:href="#glyph0-1" x="399.638621" y="55.141678"/>
</g>
<g style="fill:rgb(10.195923%,10.195923%,10.195923%);fill-opacity:1;">
  <use xlink:href="#glyph1-2" x="348.242155" y="97.232586"/>
</g>
<g style="fill:rgb(10.195923%,10.195923%,10.195923%);fill-opacity:1;">
  <use xlink:href="#glyph7-6" x="354.303262" y="97.232586"/>
</g>
<g style="fill:rgb(10.195923%,10.195923%,10.195923%);fill-opacity:1;">
  <use xlink:href="#glyph0-1" x="364.673312" y="97.232586"/>
</g>
<g style="fill:rgb(10.195923%,10.195923%,10.195923%);fill-opacity:1;">
  <use xlink:href="#glyph7-5" x="373.530084" y="97.232586"/>
</g>
<g style="fill:rgb(10.195923%,10.195923%,10.195923%);fill-opacity:1;">
  <use xlink:href="#glyph1-4" x="386.409936" y="97.232586"/>
</g>
<g style="fill:rgb(10.195923%,10.195923%,10.195923%);fill-opacity:1;">
  <use xlink:href="#glyph7-6" x="392.820876" y="97.232586"/>
</g>
<g style="fill:rgb(10.195923%,10.195923%,10.195923%);fill-opacity:1;">
  <use xlink:href="#glyph7-7" x="403.192995" y="97.232586"/>
  <use xlink:href="#glyph7-8" x="408.25956" y="97.232586"/>
</g>
</g>
</svg>
